<mxfile host="Electron" modified="2023-06-04T13:17:10.892Z" agent="Mozilla/5.0 (Macintosh; Intel Mac OS X 10_15_7) AppleWebKit/537.36 (KHTML, like Gecko) draw.io/21.2.8 Chrome/112.0.5615.165 Electron/24.2.0 Safari/537.36" etag="QVzTUWbX0MZlXu4IggwY" version="21.2.8" type="device" pages="2">
  <diagram name="编译器&amp;解释器" id="_W9uqtBCHQwkbY_2SAlF">
    <mxGraphModel dx="1194" dy="849" grid="1" gridSize="10" guides="1" tooltips="1" connect="1" arrows="1" fold="1" page="1" pageScale="1" pageWidth="2339" pageHeight="3300" math="0" shadow="0">
      <root>
        <mxCell id="0" />
        <mxCell id="1" parent="0" />
        <mxCell id="8qnZXx7w5faZMo9TW2JQ-3" value="" style="edgeStyle=orthogonalEdgeStyle;rounded=0;orthogonalLoop=1;jettySize=auto;html=1;" edge="1" parent="1" source="8qnZXx7w5faZMo9TW2JQ-1" target="8qnZXx7w5faZMo9TW2JQ-2">
          <mxGeometry relative="1" as="geometry" />
        </mxCell>
        <mxCell id="8qnZXx7w5faZMo9TW2JQ-1" value="源程序" style="whiteSpace=wrap;html=1;fillColor=#f5f5f5;fontColor=#333333;strokeColor=#666666;" vertex="1" parent="1">
          <mxGeometry x="480" y="200" width="100" height="50" as="geometry" />
        </mxCell>
        <mxCell id="8qnZXx7w5faZMo9TW2JQ-5" value="" style="edgeStyle=orthogonalEdgeStyle;rounded=0;orthogonalLoop=1;jettySize=auto;html=1;" edge="1" parent="1" source="8qnZXx7w5faZMo9TW2JQ-2" target="8qnZXx7w5faZMo9TW2JQ-4">
          <mxGeometry relative="1" as="geometry" />
        </mxCell>
        <mxCell id="8qnZXx7w5faZMo9TW2JQ-2" value="编译器" style="whiteSpace=wrap;html=1;fillColor=#fff2cc;strokeColor=#d6b656;" vertex="1" parent="1">
          <mxGeometry x="480" y="310" width="100" height="50" as="geometry" />
        </mxCell>
        <mxCell id="8qnZXx7w5faZMo9TW2JQ-7" value="" style="edgeStyle=orthogonalEdgeStyle;rounded=0;orthogonalLoop=1;jettySize=auto;html=1;" edge="1" parent="1" source="8qnZXx7w5faZMo9TW2JQ-4" target="8qnZXx7w5faZMo9TW2JQ-6">
          <mxGeometry relative="1" as="geometry" />
        </mxCell>
        <mxCell id="8qnZXx7w5faZMo9TW2JQ-4" value="目标程序" style="whiteSpace=wrap;html=1;fillColor=#f8cecc;strokeColor=#b85450;" vertex="1" parent="1">
          <mxGeometry x="480" y="420" width="100" height="50" as="geometry" />
        </mxCell>
        <mxCell id="8qnZXx7w5faZMo9TW2JQ-6" value="输出" style="whiteSpace=wrap;html=1;fillColor=#dae8fc;strokeColor=#6c8ebf;" vertex="1" parent="1">
          <mxGeometry x="660" y="420" width="100" height="50" as="geometry" />
        </mxCell>
        <mxCell id="8qnZXx7w5faZMo9TW2JQ-9" style="edgeStyle=orthogonalEdgeStyle;rounded=0;orthogonalLoop=1;jettySize=auto;html=1;entryX=0;entryY=0.5;entryDx=0;entryDy=0;" edge="1" parent="1" source="8qnZXx7w5faZMo9TW2JQ-8" target="8qnZXx7w5faZMo9TW2JQ-4">
          <mxGeometry relative="1" as="geometry" />
        </mxCell>
        <mxCell id="8qnZXx7w5faZMo9TW2JQ-8" value="输入" style="whiteSpace=wrap;html=1;fillColor=#dae8fc;strokeColor=#6c8ebf;" vertex="1" parent="1">
          <mxGeometry x="300" y="420" width="100" height="50" as="geometry" />
        </mxCell>
        <mxCell id="8qnZXx7w5faZMo9TW2JQ-14" style="edgeStyle=orthogonalEdgeStyle;rounded=0;orthogonalLoop=1;jettySize=auto;html=1;entryX=0;entryY=0.5;entryDx=0;entryDy=0;" edge="1" parent="1" source="8qnZXx7w5faZMo9TW2JQ-10" target="8qnZXx7w5faZMo9TW2JQ-13">
          <mxGeometry relative="1" as="geometry" />
        </mxCell>
        <mxCell id="8qnZXx7w5faZMo9TW2JQ-10" value="解释器" style="whiteSpace=wrap;html=1;fillColor=#fff2cc;strokeColor=#d6b656;" vertex="1" parent="1">
          <mxGeometry x="480" y="680" width="100" height="50" as="geometry" />
        </mxCell>
        <mxCell id="8qnZXx7w5faZMo9TW2JQ-18" style="edgeStyle=orthogonalEdgeStyle;rounded=0;orthogonalLoop=1;jettySize=auto;html=1;entryX=-0.01;entryY=0.64;entryDx=0;entryDy=0;entryPerimeter=0;" edge="1" parent="1" source="8qnZXx7w5faZMo9TW2JQ-11" target="8qnZXx7w5faZMo9TW2JQ-10">
          <mxGeometry relative="1" as="geometry" />
        </mxCell>
        <mxCell id="8qnZXx7w5faZMo9TW2JQ-11" value="输入" style="whiteSpace=wrap;html=1;fillColor=#dae8fc;strokeColor=#6c8ebf;" vertex="1" parent="1">
          <mxGeometry x="320" y="720" width="100" height="50" as="geometry" />
        </mxCell>
        <mxCell id="8qnZXx7w5faZMo9TW2JQ-13" value="输出" style="whiteSpace=wrap;html=1;fillColor=#dae8fc;strokeColor=#6c8ebf;" vertex="1" parent="1">
          <mxGeometry x="660" y="680" width="100" height="50" as="geometry" />
        </mxCell>
        <mxCell id="8qnZXx7w5faZMo9TW2JQ-17" style="edgeStyle=orthogonalEdgeStyle;rounded=0;orthogonalLoop=1;jettySize=auto;html=1;entryX=0;entryY=0.25;entryDx=0;entryDy=0;" edge="1" parent="1" source="8qnZXx7w5faZMo9TW2JQ-16" target="8qnZXx7w5faZMo9TW2JQ-10">
          <mxGeometry relative="1" as="geometry" />
        </mxCell>
        <mxCell id="8qnZXx7w5faZMo9TW2JQ-16" value="源程序" style="whiteSpace=wrap;html=1;fillColor=#f5f5f5;fontColor=#333333;strokeColor=#666666;" vertex="1" parent="1">
          <mxGeometry x="320" y="620" width="100" height="50" as="geometry" />
        </mxCell>
      </root>
    </mxGraphModel>
  </diagram>
  <diagram id="5KKHaoO3eb-aihvAhuAy" name="语言处理系统">
    <mxGraphModel dx="1194" dy="877" grid="1" gridSize="10" guides="1" tooltips="1" connect="1" arrows="1" fold="1" page="1" pageScale="1" pageWidth="2339" pageHeight="3300" math="0" shadow="0">
      <root>
        <mxCell id="0" />
        <mxCell id="1" parent="0" />
        <mxCell id="uZPdlwu0Bxf5yyAHBwEO-3" value="" style="edgeStyle=orthogonalEdgeStyle;rounded=0;orthogonalLoop=1;jettySize=auto;html=1;" edge="1" parent="1" source="uZPdlwu0Bxf5yyAHBwEO-1" target="uZPdlwu0Bxf5yyAHBwEO-2">
          <mxGeometry relative="1" as="geometry" />
        </mxCell>
        <mxCell id="uZPdlwu0Bxf5yyAHBwEO-1" value="源程序" style="whiteSpace=wrap;html=1;strokeColor=#82b366;fillColor=#d5e8d4;" vertex="1" parent="1">
          <mxGeometry x="430" y="180" width="80" height="40" as="geometry" />
        </mxCell>
        <mxCell id="uZPdlwu0Bxf5yyAHBwEO-5" value="" style="edgeStyle=orthogonalEdgeStyle;rounded=0;orthogonalLoop=1;jettySize=auto;html=1;" edge="1" parent="1" source="uZPdlwu0Bxf5yyAHBwEO-2" target="uZPdlwu0Bxf5yyAHBwEO-4">
          <mxGeometry relative="1" as="geometry" />
        </mxCell>
        <mxCell id="uZPdlwu0Bxf5yyAHBwEO-2" value="预处理程序" style="whiteSpace=wrap;html=1;fillColor=#fff2cc;strokeColor=#d6b656;" vertex="1" parent="1">
          <mxGeometry x="430" y="240" width="80" height="40" as="geometry" />
        </mxCell>
        <mxCell id="uZPdlwu0Bxf5yyAHBwEO-7" value="" style="edgeStyle=orthogonalEdgeStyle;rounded=0;orthogonalLoop=1;jettySize=auto;html=1;" edge="1" parent="1" source="uZPdlwu0Bxf5yyAHBwEO-4" target="uZPdlwu0Bxf5yyAHBwEO-6">
          <mxGeometry relative="1" as="geometry" />
        </mxCell>
        <mxCell id="uZPdlwu0Bxf5yyAHBwEO-4" value="经过预处理的程序" style="whiteSpace=wrap;html=1;fillColor=#d5e8d4;strokeColor=#82b366;" vertex="1" parent="1">
          <mxGeometry x="420" y="300" width="100" height="40" as="geometry" />
        </mxCell>
        <mxCell id="uZPdlwu0Bxf5yyAHBwEO-9" value="" style="edgeStyle=orthogonalEdgeStyle;rounded=0;orthogonalLoop=1;jettySize=auto;html=1;" edge="1" parent="1" source="uZPdlwu0Bxf5yyAHBwEO-6" target="uZPdlwu0Bxf5yyAHBwEO-8">
          <mxGeometry relative="1" as="geometry" />
        </mxCell>
        <mxCell id="uZPdlwu0Bxf5yyAHBwEO-6" value="编译器" style="whiteSpace=wrap;html=1;fillColor=#fff2cc;strokeColor=#d6b656;" vertex="1" parent="1">
          <mxGeometry x="430" y="360" width="80" height="40" as="geometry" />
        </mxCell>
        <mxCell id="uZPdlwu0Bxf5yyAHBwEO-11" value="" style="edgeStyle=orthogonalEdgeStyle;rounded=0;orthogonalLoop=1;jettySize=auto;html=1;" edge="1" parent="1" source="uZPdlwu0Bxf5yyAHBwEO-8" target="uZPdlwu0Bxf5yyAHBwEO-10">
          <mxGeometry relative="1" as="geometry" />
        </mxCell>
        <mxCell id="uZPdlwu0Bxf5yyAHBwEO-8" value="目标汇编程序" style="whiteSpace=wrap;html=1;fillColor=#d5e8d4;strokeColor=#82b366;" vertex="1" parent="1">
          <mxGeometry x="430" y="420" width="80" height="40" as="geometry" />
        </mxCell>
        <mxCell id="uZPdlwu0Bxf5yyAHBwEO-13" value="" style="edgeStyle=orthogonalEdgeStyle;rounded=0;orthogonalLoop=1;jettySize=auto;html=1;" edge="1" parent="1" source="uZPdlwu0Bxf5yyAHBwEO-10" target="uZPdlwu0Bxf5yyAHBwEO-12">
          <mxGeometry relative="1" as="geometry" />
        </mxCell>
        <mxCell id="uZPdlwu0Bxf5yyAHBwEO-10" value="汇编器" style="whiteSpace=wrap;html=1;fillColor=#fff2cc;strokeColor=#d6b656;" vertex="1" parent="1">
          <mxGeometry x="430" y="490" width="80" height="40" as="geometry" />
        </mxCell>
        <mxCell id="uZPdlwu0Bxf5yyAHBwEO-15" value="" style="edgeStyle=orthogonalEdgeStyle;rounded=0;orthogonalLoop=1;jettySize=auto;html=1;" edge="1" parent="1" source="uZPdlwu0Bxf5yyAHBwEO-12" target="uZPdlwu0Bxf5yyAHBwEO-14">
          <mxGeometry relative="1" as="geometry" />
        </mxCell>
        <mxCell id="uZPdlwu0Bxf5yyAHBwEO-12" value="可重定位机器代码" style="whiteSpace=wrap;html=1;fillColor=#d5e8d4;strokeColor=#82b366;" vertex="1" parent="1">
          <mxGeometry x="415" y="550" width="110" height="40" as="geometry" />
        </mxCell>
        <mxCell id="uZPdlwu0Bxf5yyAHBwEO-19" value="" style="edgeStyle=orthogonalEdgeStyle;rounded=0;orthogonalLoop=1;jettySize=auto;html=1;" edge="1" parent="1" source="uZPdlwu0Bxf5yyAHBwEO-14" target="uZPdlwu0Bxf5yyAHBwEO-18">
          <mxGeometry relative="1" as="geometry" />
        </mxCell>
        <mxCell id="uZPdlwu0Bxf5yyAHBwEO-14" value="链接器/加载器" style="whiteSpace=wrap;html=1;fillColor=#fff2cc;strokeColor=#d6b656;" vertex="1" parent="1">
          <mxGeometry x="415" y="610" width="110" height="40" as="geometry" />
        </mxCell>
        <mxCell id="uZPdlwu0Bxf5yyAHBwEO-17" style="edgeStyle=orthogonalEdgeStyle;rounded=0;orthogonalLoop=1;jettySize=auto;html=1;entryX=1;entryY=0.5;entryDx=0;entryDy=0;" edge="1" parent="1" source="uZPdlwu0Bxf5yyAHBwEO-16" target="uZPdlwu0Bxf5yyAHBwEO-14">
          <mxGeometry relative="1" as="geometry" />
        </mxCell>
        <mxCell id="uZPdlwu0Bxf5yyAHBwEO-16" value="库文件&lt;br&gt;可重定位对象文件" style="whiteSpace=wrap;html=1;fillColor=#e1d5e7;strokeColor=#9673a6;" vertex="1" parent="1">
          <mxGeometry x="610" y="610" width="110" height="40" as="geometry" />
        </mxCell>
        <mxCell id="uZPdlwu0Bxf5yyAHBwEO-18" value="目标机器代码" style="whiteSpace=wrap;html=1;fillColor=#d5e8d4;strokeColor=#82b366;" vertex="1" parent="1">
          <mxGeometry x="415" y="670" width="110" height="40" as="geometry" />
        </mxCell>
        <mxCell id="uZPdlwu0Bxf5yyAHBwEO-20" value="一个语言处理系统" style="text;html=1;align=center;verticalAlign=middle;resizable=0;points=[];autosize=1;strokeColor=none;fillColor=none;" vertex="1" parent="1">
          <mxGeometry x="410" y="730" width="120" height="30" as="geometry" />
        </mxCell>
      </root>
    </mxGraphModel>
  </diagram>
</mxfile>
